<?xml version="1.0" encoding="UTF-8" standalone="no"?>
<!-- Created with Inkscape (http://www.inkscape.org/) -->

<svg
   xmlns:dc="http://purl.org/dc/elements/1.1/"
   xmlns:cc="http://creativecommons.org/ns#"
   xmlns:rdf="http://www.w3.org/1999/02/22-rdf-syntax-ns#"
   xmlns:svg="http://www.w3.org/2000/svg"
   xmlns="http://www.w3.org/2000/svg"
   xmlns:sodipodi="http://sodipodi.sourceforge.net/DTD/sodipodi-0.dtd"
   xmlns:inkscape="http://www.inkscape.org/namespaces/inkscape"
   width="210mm"
   height="297mm"
   viewBox="0 0 210 297"
   version="1.1"
   id="svg8"
   sodipodi:docname="screen.svg"
   inkscape:export-filename="/home/cest/doc/comp/MWLL/maps-2018/Screen/Screen.png"
   inkscape:export-xdpi="383.81253"
   inkscape:export-ydpi="383.81253"
   inkscape:version="0.92.4 5da689c313, 2019-01-14">
  <defs
     id="defs2">
    <filter
       inkscape:collect="always"
       style="color-interpolation-filters:sRGB"
       id="filter1158"
       x="-0.0012506332"
       width="1.0025013"
       y="-0.0011533071"
       height="1.0023066">
      <feGaussianBlur
         inkscape:collect="always"
         stdDeviation="0.045814259"
         id="feGaussianBlur1160" />
    </filter>
    <filter
       inkscape:collect="always"
       style="color-interpolation-filters:sRGB"
       id="filter946"
       x="-0.00062983425"
       width="1.0012597"
       y="-0.012666667"
       height="1.0253333">
      <feGaussianBlur
         inkscape:collect="always"
         stdDeviation="0.023293497"
         id="feGaussianBlur948" />
    </filter>
  </defs>
  <sodipodi:namedview
     id="base"
     pagecolor="#ffffff"
     bordercolor="#666666"
     borderopacity="1.0"
     inkscape:pageopacity="0.0"
     inkscape:pageshadow="2"
     inkscape:zoom="1.1699219"
     inkscape:cx="297.29113"
     inkscape:cy="663.51666"
     inkscape:document-units="mm"
     inkscape:current-layer="layer1"
     showgrid="false"
     inkscape:window-width="1280"
     inkscape:window-height="777"
     inkscape:window-x="0"
     inkscape:window-y="23"
     inkscape:window-maximized="1" />
  <metadata
     id="metadata5">
    <rdf:RDF>
      <cc:Work
         rdf:about="">
        <dc:format>image/svg+xml</dc:format>
        <dc:type
           rdf:resource="http://purl.org/dc/dcmitype/StillImage" />
      </cc:Work>
    </rdf:RDF>
  </metadata>
  <g
     inkscape:label="Layer 1"
     inkscape:groupmode="layer"
     id="layer1">
    <rect
       style="opacity:1;fill:#333333;fill-opacity:1;stroke:none;stroke-width:4;stroke-linecap:square;stroke-linejoin:bevel;stroke-miterlimit:4;stroke-dasharray:none;stroke-opacity:1;paint-order:stroke markers fill"
       id="rect815"
       width="135.46666"
       height="135.46666"
       x="19.654762"
       y="55.851189" />
    <g
       id="g949">
      <text
         id="text819"
         y="74.2658"
         x="39.02634"
         style="font-style:normal;font-variant:normal;font-weight:normal;font-stretch:normal;font-size:3.52777767px;line-height:1;font-family:'Courier 10 Pitch';-inkscape-font-specification:'Courier 10 Pitch';letter-spacing:0px;word-spacing:0px;fill:#00ff00;fill-opacity:1;stroke:none;stroke-width:0.26458332;filter:url(#filter1158)"
         xml:space="preserve"><tspan
           style="font-style:normal;font-variant:normal;font-weight:normal;font-stretch:normal;font-size:3.52777767px;line-height:1;font-family:'Courier 10 Pitch';-inkscape-font-specification:'Courier 10 Pitch';fill:#00ff00;stroke-width:0.26458332"
           y="74.2658"
           x="39.02634"
           id="tspan817"
           sodipodi:role="line"> </tspan><tspan
           id="tspan869"
           style="font-style:normal;font-variant:normal;font-weight:normal;font-stretch:normal;font-size:3.52777767px;line-height:1;font-family:'Courier 10 Pitch';-inkscape-font-specification:'Courier 10 Pitch';fill:#00ff00;stroke-width:0.26458332"
           y="77.793579"
           x="39.02634"
           sodipodi:role="line" /><tspan
           id="tspan887"
           style="font-style:normal;font-variant:normal;font-weight:normal;font-stretch:normal;font-size:3.52777767px;line-height:1;font-family:'Courier 10 Pitch';-inkscape-font-specification:'Courier 10 Pitch';fill:#00ff00;stroke-width:0.26458332"
           y="81.321358"
           x="39.02634"
           sodipodi:role="line">   &lt;&lt;&lt; Accessing Secure H.P.G. Interface &gt;&gt;&gt;</tspan><tspan
           id="tspan879"
           style="font-style:normal;font-variant:normal;font-weight:normal;font-stretch:normal;font-size:3.52777767px;line-height:1;font-family:'Courier 10 Pitch';-inkscape-font-specification:'Courier 10 Pitch';fill:#00ff00;stroke-width:0.26458332"
           y="84.849136"
           x="39.02634"
           sodipodi:role="line" /><tspan
           id="tspan841"
           style="font-style:normal;font-variant:normal;font-weight:normal;font-stretch:normal;font-size:3.52777767px;line-height:1;font-family:'Courier 10 Pitch';-inkscape-font-specification:'Courier 10 Pitch';fill:#00ff00;stroke-width:0.26458332"
           y="88.376907"
           x="39.02634"
           sodipodi:role="line" /><tspan
           id="tspan932"
           style="font-style:normal;font-variant:normal;font-weight:normal;font-stretch:normal;font-size:3.52777767px;line-height:1;font-family:'Courier 10 Pitch';-inkscape-font-specification:'Courier 10 Pitch';fill:#00ff00;stroke-width:0.26458332"
           y="91.904686"
           x="39.02634"
           sodipodi:role="line"> Transmission Intercept Authorized:</tspan><tspan
           id="tspan847"
           style="font-style:normal;font-variant:normal;font-weight:normal;font-stretch:normal;font-size:3.52777767px;line-height:1;font-family:'Courier 10 Pitch';-inkscape-font-specification:'Courier 10 Pitch';fill:#00ff00;stroke-width:0.26458332"
           y="95.432465"
           x="39.02634"
           sodipodi:role="line" /><tspan
           id="tspan930"
           style="font-style:normal;font-variant:normal;font-weight:normal;font-stretch:normal;font-size:3.52777767px;line-height:1;font-family:'Courier 10 Pitch';-inkscape-font-specification:'Courier 10 Pitch';fill:#00ff00;stroke-width:0.26458332"
           y="98.960243"
           x="39.02634"
           sodipodi:role="line">%{BUCKANEER} :: %{RAZORBACK} #@&lt;8455229637&gt;:</tspan><tspan
           id="tspan825"
           style="font-style:normal;font-variant:normal;font-weight:normal;font-stretch:normal;font-size:3.52777767px;line-height:1;font-family:'Courier 10 Pitch';-inkscape-font-specification:'Courier 10 Pitch';fill:#00ff00;stroke-width:0.26458332"
           y="102.48802"
           x="39.02634"
           sodipodi:role="line" /><tspan
           id="tspan851"
           style="font-style:normal;font-variant:normal;font-weight:normal;font-stretch:normal;font-size:3.52777767px;line-height:1;font-family:'Courier 10 Pitch';-inkscape-font-specification:'Courier 10 Pitch';fill:#00ff00;stroke-width:0.26458332"
           y="106.0158"
           x="39.02634"
           sodipodi:role="line">&gt; PRIMARY objective failed: dropship is down</tspan><tspan
           id="tspan894"
           style="font-style:normal;font-variant:normal;font-weight:normal;font-stretch:normal;font-size:3.52777767px;line-height:1;font-family:'Courier 10 Pitch';-inkscape-font-specification:'Courier 10 Pitch';fill:#00ff00;stroke-width:0.26458332"
           y="109.54358"
           x="39.02634"
           sodipodi:role="line">&gt; SECONDARY objective null: get to dustoff site</tspan><tspan
           id="tspan926"
           style="font-style:normal;font-variant:normal;font-weight:normal;font-stretch:normal;font-size:3.52777767px;line-height:1;font-family:'Courier 10 Pitch';-inkscape-font-specification:'Courier 10 Pitch';fill:#00ff00;stroke-width:0.26458332"
           y="113.07136"
           x="39.02634"
           sodipodi:role="line">+ NEW PRIMARY objective: sieze HPG station</tspan><tspan
           style="font-style:normal;font-variant:normal;font-weight:normal;font-stretch:normal;font-size:3.52777767px;line-height:1;font-family:'Courier 10 Pitch';-inkscape-font-specification:'Courier 10 Pitch';fill:#00ff00;stroke-width:0.26458332"
           y="116.59914"
           x="39.02634"
           sodipodi:role="line"
           id="tspan871">+ NEW SECONDARY objective: crash site recon</tspan><tspan
           id="tspan907"
           style="font-style:normal;font-variant:normal;font-weight:normal;font-stretch:normal;font-size:3.52777767px;line-height:1;font-family:'Courier 10 Pitch';-inkscape-font-specification:'Courier 10 Pitch';fill:#00ff00;stroke-width:0.26458332"
           y="120.12691"
           x="39.02634"
           sodipodi:role="line" /><tspan
           id="tspan865"
           style="font-style:normal;font-variant:normal;font-weight:normal;font-stretch:normal;font-size:3.52777767px;line-height:1;font-family:'Courier 10 Pitch';-inkscape-font-specification:'Courier 10 Pitch';fill:#00ff00;stroke-width:0.26458332"
           y="123.65469"
           x="39.02634"
           sodipodi:role="line" /><tspan
           id="tspan885"
           style="font-style:normal;font-variant:normal;font-weight:normal;font-stretch:normal;font-size:3.52777767px;line-height:1;font-family:'Courier 10 Pitch';-inkscape-font-specification:'Courier 10 Pitch';fill:#00ff00;stroke-width:0.26458332"
           y="127.18246"
           x="39.02634"
           sodipodi:role="line">ready&gt;_</tspan></text>
      <rect
         transform="matrix(1.0036832,0,0,0.62962957,-2.0562094,23.794089)"
         y="76.324776"
         x="40.048466"
         height="4.4135046"
         width="88.760483"
         id="rect936"
         style="opacity:1;fill:#00fe00;fill-opacity:1;stroke:#333333;stroke-width:5.03175068;stroke-linecap:square;stroke-linejoin:bevel;stroke-miterlimit:4;stroke-dasharray:none;stroke-opacity:1;paint-order:stroke markers fill;filter:url(#filter946)" />
      <rect
         transform="matrix(1.2746022,0,0,0.62962957,-20.167051,37.918126)"
         y="76.324776"
         x="40.048466"
         height="4.4135046"
         width="88.760483"
         id="rect988"
         style="opacity:1;fill:#00fe00;fill-opacity:1;stroke:#333333;stroke-width:4.46508884;stroke-linecap:square;stroke-linejoin:bevel;stroke-miterlimit:4;stroke-dasharray:none;stroke-opacity:1;paint-order:stroke markers fill;filter:url(#filter946)" />
      <rect
         style="opacity:1;fill:#00fe00;fill-opacity:1;stroke:#333333;stroke-width:4.46508884;stroke-linecap:square;stroke-linejoin:bevel;stroke-miterlimit:4;stroke-dasharray:none;stroke-opacity:1;paint-order:stroke markers fill;filter:url(#filter946)"
         id="rect990"
         width="88.760483"
         height="4.4135046"
         x="40.048466"
         y="76.324776"
         transform="matrix(1.2746022,0,0,0.62962957,-20.167051,73.045368)" />
      <rect
         style="opacity:1;fill:#00fe00;fill-opacity:1;stroke:#333333;stroke-width:4.46508884;stroke-linecap:square;stroke-linejoin:bevel;stroke-miterlimit:4;stroke-dasharray:none;stroke-opacity:1;paint-order:stroke markers fill;filter:url(#filter946)"
         id="rect986"
         width="88.760483"
         height="4.4135046"
         x="40.048466"
         y="76.324776"
         transform="matrix(1.2746022,0,0,0.62962957,-20.167051,23.794089)" />
      <text
         xml:space="preserve"
         style="font-style:normal;font-variant:normal;font-weight:normal;font-stretch:normal;font-size:3.52777767px;line-height:1;font-family:'Courier 10 Pitch';-inkscape-font-specification:'Courier 10 Pitch';letter-spacing:0px;word-spacing:0px;fill:#333333;fill-opacity:1;stroke:none;stroke-width:0.26458332;filter:url(#filter1158)"
         x="36.909672"
         y="74.2658"
         id="text984"><tspan
           sodipodi:role="line"
           id="tspan950"
           x="36.909672"
           y="74.2658"
           style="font-style:normal;font-variant:normal;font-weight:normal;font-stretch:normal;font-size:3.52777767px;line-height:1;font-family:'Courier 10 Pitch';-inkscape-font-specification:'Courier 10 Pitch';fill:#333333;fill-opacity:1;stroke-width:0.26458332">=== Solaris International POLICE Task Force ===</tspan><tspan
           sodipodi:role="line"
           x="36.909672"
           y="77.793579"
           style="font-style:normal;font-variant:normal;font-weight:normal;font-stretch:normal;font-size:3.52777767px;line-height:1;font-family:'Courier 10 Pitch';-inkscape-font-specification:'Courier 10 Pitch';fill:#333333;fill-opacity:1;stroke-width:0.26458332"
           id="tspan952" /><tspan
           sodipodi:role="line"
           x="36.909672"
           y="81.321358"
           style="font-style:normal;font-variant:normal;font-weight:normal;font-stretch:normal;font-size:3.52777767px;line-height:1;font-family:'Courier 10 Pitch';-inkscape-font-specification:'Courier 10 Pitch';fill:#333333;fill-opacity:1;stroke-width:0.26458332"
           id="tspan954" /><tspan
           sodipodi:role="line"
           x="36.909672"
           y="84.849136"
           style="font-style:normal;font-variant:normal;font-weight:normal;font-stretch:normal;font-size:3.52777767px;line-height:1;font-family:'Courier 10 Pitch';-inkscape-font-specification:'Courier 10 Pitch';fill:#333333;fill-opacity:1;stroke-width:0.26458332"
           id="tspan956" /><tspan
           sodipodi:role="line"
           x="36.909672"
           y="88.376907"
           style="font-style:normal;font-variant:normal;font-weight:normal;font-stretch:normal;font-size:3.52777767px;line-height:1;font-family:'Courier 10 Pitch';-inkscape-font-specification:'Courier 10 Pitch';fill:#333333;fill-opacity:1;stroke-width:0.26458332"
           id="tspan958">%$COMSTAR&gt;</tspan><tspan
           sodipodi:role="line"
           x="36.909672"
           y="91.904686"
           style="font-style:normal;font-variant:normal;font-weight:normal;font-stretch:normal;font-size:3.52777767px;line-height:1;font-family:'Courier 10 Pitch';-inkscape-font-specification:'Courier 10 Pitch';fill:#333333;fill-opacity:1;stroke-width:0.26458332"
           id="tspan960" /><tspan
           sodipodi:role="line"
           x="36.909672"
           y="95.432465"
           style="font-style:normal;font-variant:normal;font-weight:normal;font-stretch:normal;font-size:3.52777767px;line-height:1;font-family:'Courier 10 Pitch';-inkscape-font-specification:'Courier 10 Pitch';fill:#333333;fill-opacity:1;stroke-width:0.26458332"
           id="tspan962" /><tspan
           sodipodi:role="line"
           x="36.909672"
           y="98.960243"
           style="font-style:normal;font-variant:normal;font-weight:normal;font-stretch:normal;font-size:3.52777767px;line-height:1;font-family:'Courier 10 Pitch';-inkscape-font-specification:'Courier 10 Pitch';fill:#333333;fill-opacity:1;stroke-width:0.26458332"
           id="tspan964" /><tspan
           sodipodi:role="line"
           x="36.909672"
           y="102.48802"
           style="font-style:normal;font-variant:normal;font-weight:normal;font-stretch:normal;font-size:3.52777767px;line-height:1;font-family:'Courier 10 Pitch';-inkscape-font-specification:'Courier 10 Pitch';fill:#333333;fill-opacity:1;stroke-width:0.26458332"
           id="tspan966" /><tspan
           sodipodi:role="line"
           x="36.909672"
           y="106.0158"
           style="font-style:normal;font-variant:normal;font-weight:normal;font-stretch:normal;font-size:3.52777767px;line-height:1;font-family:'Courier 10 Pitch';-inkscape-font-specification:'Courier 10 Pitch';fill:#333333;fill-opacity:1;stroke-width:0.26458332"
           id="tspan968" /><tspan
           sodipodi:role="line"
           x="36.909672"
           y="109.54358"
           style="font-style:normal;font-variant:normal;font-weight:normal;font-stretch:normal;font-size:3.52777767px;line-height:1;font-family:'Courier 10 Pitch';-inkscape-font-specification:'Courier 10 Pitch';fill:#333333;fill-opacity:1;stroke-width:0.26458332"
           id="tspan970" /><tspan
           sodipodi:role="line"
           x="36.909672"
           y="113.07136"
           style="font-style:normal;font-variant:normal;font-weight:normal;font-stretch:normal;font-size:3.52777767px;line-height:1;font-family:'Courier 10 Pitch';-inkscape-font-specification:'Courier 10 Pitch';fill:#333333;fill-opacity:1;stroke-width:0.26458332"
           id="tspan972" /><tspan
           sodipodi:role="line"
           x="36.909672"
           y="116.59914"
           style="font-style:normal;font-variant:normal;font-weight:normal;font-stretch:normal;font-size:3.52777767px;line-height:1;font-family:'Courier 10 Pitch';-inkscape-font-specification:'Courier 10 Pitch';fill:#333333;fill-opacity:1;stroke-width:0.26458332"
           id="tspan974" /><tspan
           sodipodi:role="line"
           x="36.909672"
           y="120.12691"
           style="font-style:normal;font-variant:normal;font-weight:normal;font-stretch:normal;font-size:3.52777767px;line-height:1;font-family:'Courier 10 Pitch';-inkscape-font-specification:'Courier 10 Pitch';fill:#333333;fill-opacity:1;stroke-width:0.26458332"
           id="tspan976" /><tspan
           sodipodi:role="line"
           x="36.909672"
           y="123.65469"
           style="font-style:normal;font-variant:normal;font-weight:normal;font-stretch:normal;font-size:3.52777767px;line-height:1;font-family:'Courier 10 Pitch';-inkscape-font-specification:'Courier 10 Pitch';fill:#333333;fill-opacity:1;stroke-width:0.26458332"
           id="tspan978">Error: Transmission Interrupted, code# %4072%</tspan><tspan
           sodipodi:role="line"
           x="36.909672"
           y="127.18246"
           style="font-style:normal;font-variant:normal;font-weight:normal;font-stretch:normal;font-size:3.52777767px;line-height:1;font-family:'Courier 10 Pitch';-inkscape-font-specification:'Courier 10 Pitch';fill:#333333;fill-opacity:1;stroke-width:0.26458332"
           id="tspan982" /></text>
    </g>
    <path
       d="m 19.720908,55.851187 0,135.466653 m 0.132291,-135.466653 0,135.466653 m 0.132292,-135.466653 0,135.466653 m 0.132292,-135.466653 0,135.466653 m 0.132291,-135.466653 0,135.466653 m 0.132292,-135.466653 0,135.466653 m 0.132292,-135.466653 0,135.466653 m 0.132291,-135.466653 0,135.466653 m 0.132292,-135.466653 0,135.466653 m 0.132292,-135.466653 0,135.466653 m 0.132291,-135.466653 0,135.466653 m 0.132292,-135.466653 0,135.466653 m 0.132292,-135.466653 0,135.466653 m 0.132291,-135.466653 0,135.466653 m 0.132292,-135.466653 0,135.466653 m 0.132292,-135.466653 0,135.466653 m 0.132291,-135.466653 0,135.466653 m 0.132292,-135.466653 0,135.466653 m 0.132292,-135.466653 0,135.466653 m 0.132291,-135.466653 0,135.466653 m 0.132292,-135.466653 0,135.466653 m 0.132292,-135.466653 0,135.466653 m 0.132291,-135.466653 0,135.466653 m 0.132292,-135.466653 0,135.466653 m 0.132292,-135.466653 0,135.466653 m 0.132291,-135.466653 0,135.466653 m 0.132292,-135.466653 0,135.466653 m 0.132292,-135.466653 0,135.466653 m 0.132291,-135.466653 0,135.466653 m 0.132292,-135.466653 0,135.466653 m 0.132292,-135.466653 0,135.466653 m 0.132291,-135.466653 0,135.466653 m 0.132292,-135.466653 0,135.466653 m 0.132292,-135.466653 0,135.466653 m 0.132291,-135.466653 0,135.466653 m 0.132292,-135.466653 0,135.466653 m 0.132292,-135.466653 0,135.466653 m 0.132291,-135.466653 0,135.466653 m 0.132292,-135.466653 0,135.466653 m 0.132292,-135.466653 0,135.466653 m 0.132291,-135.466653 0,135.466653 m 0.132292,-135.466653 0,135.466653 m 0.132292,-135.466653 0,135.466653 m 0.132291,-135.466653 0,135.466653 m 0.132292,-135.466653 0,135.466653 m 0.132292,-135.466653 0,135.466653 m 0.132291,-135.466653 0,135.466653 m 0.132292,-135.466653 0,135.466653 m 0.132292,-135.466653 0,135.466653 m 0.132291,-135.466653 0,135.466653 m 0.132292,-135.466653 0,135.466653 m 0.132291,-135.466653 0,135.466653 m 0.132292,-135.466653 0,135.466653 m 0.132292,-135.466653 0,135.466653 m 0.132291,-135.466653 0,135.466653 m 0.132292,-135.466653 0,135.466653 m 0.132292,-135.466653 0,135.466653 m 0.132291,-135.466653 0,135.466653 m 0.132292,-135.466653 0,135.466653 m 0.132292,-135.466653 0,135.466653 m 0.132291,-135.466653 0,135.466653 m 0.132292,-135.466653 0,135.466653 m 0.132292,-135.466653 0,135.466653 m 0.132291,-135.466653 0,135.466653 m 0.132292,-135.466653 0,135.466653 m 0.132292,-135.466653 0,135.466653 m 0.132291,-135.466653 0,135.466653 m 0.132292,-135.466653 0,135.466653 m 0.132292,-135.466653 0,135.466653 m 0.132291,-135.466653 0,135.466653 m 0.132292,-135.466653 0,135.466653 m 0.132292,-135.466653 0,135.466653 m 0.132291,-135.466653 0,135.466653 m 0.132292,-135.466653 0,135.466653 m 0.132292,-135.466653 0,135.466653 m 0.132291,-135.466653 0,135.466653 m 0.132292,-135.466653 0,135.466653 m 0.132292,-135.466653 0,135.466653 m 0.132291,-135.466653 0,135.466653 m 0.132292,-135.466653 0,135.466653 m 0.132292,-135.466653 0,135.466653 m 0.132291,-135.466653 0,135.466653 m 0.132292,-135.466653 0,135.466653 m 0.132292,-135.466653 0,135.466653 m 0.132291,-135.466653 0,135.466653 m 0.132292,-135.466653 0,135.466653 m 0.132292,-135.466653 0,135.466653 m 0.132291,-135.466653 0,135.466653 m 0.132292,-135.466653 0,135.466653 m 0.132292,-135.466653 0,135.466653 m 0.132291,-135.466653 0,135.466653 m 0.132292,-135.466653 0,135.466653 m 0.132292,-135.466653 0,135.466653 m 0.132291,-135.466653 0,135.466653 m 0.132292,-135.466653 0,135.466653 m 0.132292,-135.466653 0,135.466653 m 0.132291,-135.466653 0,135.466653 m 0.132292,-135.466653 0,135.466653 m 0.132292,-135.466653 0,135.466653 m 0.132291,-135.466653 0,135.466653 m 0.132292,-135.466653 0,135.466653 m 0.132292,-135.466653 0,135.466653 m 0.132291,-135.466653 0,135.466653 m 0.132292,-135.466653 0,135.466653 m 0.132292,-135.466653 0,135.466653 m 0.132291,-135.466653 0,135.466653 m 0.132292,-135.466653 0,135.466653 m 0.132292,-135.466653 0,135.466653 m 0.132291,-135.466653 0,135.466653 m 0.132292,-135.466653 0,135.466653 m 0.132292,-135.466653 0,135.466653 m 0.132291,-135.466653 0,135.466653 m 0.132292,-135.466653 0,135.466653 m 0.132292,-135.466653 0,135.466653 m 0.132291,-135.466653 0,135.466653 m 0.132292,-135.466653 0,135.466653 m 0.132292,-135.466653 0,135.466653 m 0.132291,-135.466653 0,135.466653 m 0.132292,-135.466653 0,135.466653 m 0.132292,-135.466653 0,135.466653 m 0.132291,-135.466653 0,135.466653 m 0.132292,-135.466653 0,135.466653 m 0.132292,-135.466653 0,135.466653 m 0.132291,-135.466653 0,135.466653 m 0.132292,-135.466653 0,135.466653 m 0.132292,-135.466653 0,135.466653 m 0.132291,-135.466653 0,135.466653 m 0.132292,-135.466653 0,135.466653 m 0.132292,-135.466653 0,135.466653 m 0.132291,-135.466653 0,135.466653 m 0.132292,-135.466653 0,135.466653 m 0.132292,-135.466653 0,135.466653 m 0.132291,-135.466653 0,135.466653 m 0.132292,-135.466653 0,135.466653 m 0.132292,-135.466653 0,135.466653 m 0.132291,-135.466653 0,135.466653 m 0.132292,-135.466653 0,135.466653 m 0.132292,-135.466653 0,135.466653 m 0.132291,-135.466653 0,135.466653 m 0.132292,-135.466653 0,135.466653 m 0.132292,-135.466653 0,135.466653 m 0.132291,-135.466653 0,135.466653 m 0.132292,-135.466653 0,135.466653 m 0.132292,-135.466653 0,135.466653 m 0.132291,-135.466653 0,135.466653 m 0.132292,-135.466653 0,135.466653 m 0.132292,-135.466653 0,135.466653 m 0.132291,-135.466653 0,135.466653 m 0.132292,-135.466653 0,135.466653 m 0.132292,-135.466653 0,135.466653 m 0.132291,-135.466653 0,135.466653 m 0.132292,-135.466653 0,135.466653 m 0.132292,-135.466653 0,135.466653 m 0.132291,-135.466653 0,135.466653 m 0.132292,-135.466653 0,135.466653 m 0.132292,-135.466653 0,135.466653 m 0.132291,-135.466653 0,135.466653 m 0.132292,-135.466653 0,135.466653 m 0.132292,-135.466653 0,135.466653 m 0.132291,-135.466653 0,135.466653 m 0.132292,-135.466653 0,135.466653 m 0.132291,-135.466653 0,135.466653 m 0.132292,-135.466653 0,135.466653 m 0.132292,-135.466653 0,135.466653 m 0.132291,-135.466653 0,135.466653 m 0.132292,-135.466653 0,135.466653 m 0.132292,-135.466653 0,135.466653 m 0.132291,-135.466653 0,135.466653 m 0.132292,-135.466653 0,135.466653 m 0.132292,-135.466653 0,135.466653 m 0.132291,-135.466653 0,135.466653 m 0.132292,-135.466653 0,135.466653 m 0.132292,-135.466653 0,135.466653 m 0.132291,-135.466653 0,135.466653 m 0.132292,-135.466653 0,135.466653 m 0.132292,-135.466653 0,135.466653 m 0.132291,-135.466653 0,135.466653 m 0.132292,-135.466653 0,135.466653 m 0.132292,-135.466653 0,135.466653 m 0.132291,-135.466653 0,135.466653 m 0.132292,-135.466653 0,135.466653 m 0.132292,-135.466653 0,135.466653 m 0.132291,-135.466653 0,135.466653 m 0.132292,-135.466653 0,135.466653 m 0.132292,-135.466653 0,135.466653 m 0.132291,-135.466653 0,135.466653 m 0.132292,-135.466653 0,135.466653 m 0.132292,-135.466653 0,135.466653 m 0.132291,-135.466653 0,135.466653 m 0.132292,-135.466653 0,135.466653 m 0.132292,-135.466653 0,135.466653 m 0.132291,-135.466653 0,135.466653 m 0.132292,-135.466653 0,135.466653 m 0.132292,-135.466653 0,135.466653 m 0.132291,-135.466653 0,135.466653 m 0.132292,-135.466653 0,135.466653 m 0.132292,-135.466653 0,135.466653 m 0.132291,-135.466653 0,135.466653 m 0.132292,-135.466653 0,135.466653 m 0.132292,-135.466653 0,135.466653 m 0.132291,-135.466653 0,135.466653 m 0.132292,-135.466653 0,135.466653 m 0.132292,-135.466653 0,135.466653 m 0.132291,-135.466653 0,135.466653 m 0.132292,-135.466653 0,135.466653 m 0.132292,-135.466653 0,135.466653 m 0.132291,-135.466653 0,135.466653 m 0.132292,-135.466653 0,135.466653 m 0.132292,-135.466653 0,135.466653 m 0.132291,-135.466653 0,135.466653 m 0.132292,-135.466653 0,135.466653 m 0.132292,-135.466653 0,135.466653 m 0.132291,-135.466653 0,135.466653 m 0.132292,-135.466653 0,135.466653 m 0.132292,-135.466653 0,135.466653 m 0.132291,-135.466653 0,135.466653 m 0.132292,-135.466653 0,135.466653 m 0.132292,-135.466653 0,135.466653 m 0.132291,-135.466653 0,135.466653 m 0.132292,-135.466653 0,135.466653 m 0.132292,-135.466653 0,135.466653 m 0.132291,-135.466653 0,135.466653 m 0.132292,-135.466653 0,135.466653 m 0.132292,-135.466653 0,135.466653 m 0.132291,-135.466653 0,135.466653 m 0.132292,-135.466653 0,135.466653 m 0.132292,-135.466653 0,135.466653 m 0.132291,-135.466653 0,135.466653 m 0.132292,-135.466653 0,135.466653 m 0.132292,-135.466653 0,135.466653 m 0.132291,-135.466653 0,135.466653 m 0.132292,-135.466653 0,135.466653 m 0.132292,-135.466653 0,135.466653 m 0.132291,-135.466653 0,135.466653 m 0.132292,-135.466653 0,135.466653 m 0.132292,-135.466653 0,135.466653 m 0.132291,-135.466653 0,135.466653 m 0.132292,-135.466653 0,135.466653 m 0.132292,-135.466653 0,135.466653 m 0.132291,-135.466653 0,135.466653 m 0.132292,-135.466653 0,135.466653 m 0.132292,-135.466653 0,135.466653 m 0.132291,-135.466653 0,135.466653 m 0.132292,-135.466653 0,135.466653 m 0.132292,-135.466653 0,135.466653 m 0.132291,-135.466653 0,135.466653 m 0.132292,-135.466653 0,135.466653 m 0.132292,-135.466653 0,135.466653 m 0.132291,-135.466653 0,135.466653 m 0.132292,-135.466653 0,135.466653 m 0.132292,-135.466653 0,135.466653 m 0.132291,-135.466653 0,135.466653 m 0.132292,-135.466653 0,135.466653 m 0.132292,-135.466653 0,135.466653 m 0.132291,-135.466653 0,135.466653 m 0.132292,-135.466653 0,135.466653 m 0.132292,-135.466653 0,135.466653 m 0.132291,-135.466653 0,135.466653 m 0.132292,-135.466653 0,135.466653 m 0.132292,-135.466653 0,135.466653 m 0.132291,-135.466653 0,135.466653 m 0.132292,-135.466653 0,135.466653 m 0.132292,-135.466653 0,135.466653 m 0.132291,-135.466653 0,135.466653 m 0.132292,-135.466653 0,135.466653 m 0.132292,-135.466653 0,135.466653 m 0.132291,-135.466653 0,135.466653 m 0.132292,-135.466653 0,135.466653 m 0.132291,-135.466653 0,135.466653 m 0.132292,-135.466653 0,135.466653 m 0.132292,-135.466653 0,135.466653 m 0.132291,-135.466653 0,135.466653 m 0.132292,-135.466653 0,135.466653 m 0.132292,-135.466653 0,135.466653 m 0.132291,-135.466653 0,135.466653 m 0.132292,-135.466653 0,135.466653 m 0.132292,-135.466653 0,135.466653 m 0.132291,-135.466653 0,135.466653 m 0.132292,-135.466653 0,135.466653 m 0.132292,-135.466653 0,135.466653 m 0.132291,-135.466653 0,135.466653 m 0.132292,-135.466653 0,135.466653 m 0.132292,-135.466653 0,135.466653 m 0.132291,-135.466653 0,135.466653 m 0.132292,-135.466653 0,135.466653 m 0.132292,-135.466653 0,135.466653 m 0.132291,-135.466653 0,135.466653 m 0.132292,-135.466653 0,135.466653 m 0.132292,-135.466653 0,135.466653 m 0.132291,-135.466653 0,135.466653 m 0.132292,-135.466653 0,135.466653 m 0.132292,-135.466653 0,135.466653 m 0.132291,-135.466653 0,135.466653 m 0.132292,-135.466653 0,135.466653 m 0.132292,-135.466653 0,135.466653 m 0.132291,-135.466653 0,135.466653 m 0.132292,-135.466653 0,135.466653 m 0.132292,-135.466653 0,135.466653 m 0.132291,-135.466653 0,135.466653 m 0.132292,-135.466653 0,135.466653 m 0.132292,-135.466653 0,135.466653 m 0.132291,-135.466653 0,135.466653 m 0.132292,-135.466653 0,135.466653 m 0.132292,-135.466653 0,135.466653 m 0.132291,-135.466653 0,135.466653 m 0.132292,-135.466653 0,135.466653 m 0.132292,-135.466653 0,135.466653 m 0.132291,-135.466653 0,135.466653 m 0.132292,-135.466653 0,135.466653 m 0.132292,-135.466653 0,135.466653 m 0.132291,-135.466653 0,135.466653 m 0.132292,-135.466653 0,135.466653 m 0.132292,-135.466653 0,135.466653 m 0.132291,-135.466653 0,135.466653 m 0.132292,-135.466653 0,135.466653 m 0.132292,-135.466653 0,135.466653 m 0.132291,-135.466653 0,135.466653 m 0.132292,-135.466653 0,135.466653 m 0.132292,-135.466653 0,135.466653 m 0.132291,-135.466653 0,135.466653 m 0.132292,-135.466653 0,135.466653 m 0.132292,-135.466653 0,135.466653 m 0.132291,-135.466653 0,135.466653 m 0.132292,-135.466653 0,135.466653 m 0.132292,-135.466653 0,135.466653 m 0.132291,-135.466653 0,135.466653 m 0.132292,-135.466653 0,135.466653 m 0.132292,-135.466653 0,135.466653 m 0.132291,-135.466653 0,135.466653 m 0.132292,-135.466653 0,135.466653 m 0.132292,-135.466653 0,135.466653 m 0.132291,-135.466653 0,135.466653 m 0.132292,-135.466653 0,135.466653 m 0.132292,-135.466653 0,135.466653 m 0.132291,-135.466653 0,135.466653 m 0.132292,-135.466653 0,135.466653 m 0.132292,-135.466653 0,135.466653 m 0.132291,-135.466653 0,135.466653 m 0.132292,-135.466653 0,135.466653 m 0.132292,-135.466653 0,135.466653 m 0.132291,-135.466653 0,135.466653 m 0.132292,-135.466653 0,135.466653 m 0.132292,-135.466653 0,135.466653 m 0.132291,-135.466653 0,135.466653 m 0.132292,-135.466653 0,135.466653 m 0.132292,-135.466653 0,135.466653 m 0.132291,-135.466653 0,135.466653 m 0.132292,-135.466653 0,135.466653 m 0.132292,-135.466653 0,135.466653 m 0.132291,-135.466653 0,135.466653 m 0.132292,-135.466653 0,135.466653 m 0.132292,-135.466653 0,135.466653 m 0.132291,-135.466653 0,135.466653 m 0.132292,-135.466653 0,135.466653 m 0.132292,-135.466653 0,135.466653 m 0.132291,-135.466653 0,135.466653 m 0.132292,-135.466653 0,135.466653 m 0.132292,-135.466653 0,135.466653 m 0.132291,-135.466653 0,135.466653 m 0.132292,-135.466653 0,135.466653 m 0.132292,-135.466653 0,135.466653 m 0.132291,-135.466653 0,135.466653 m 0.132292,-135.466653 0,135.466653 m 0.132292,-135.466653 0,135.466653 m 0.132291,-135.466653 0,135.466653 m 0.132292,-135.466653 0,135.466653 m 0.132292,-135.466653 0,135.466653 m 0.132291,-135.466653 0,135.466653 m 0.132292,-135.466653 0,135.466653 m 0.132292,-135.466653 0,135.466653 m 0.132291,-135.466653 0,135.466653 m 0.132292,-135.466653 0,135.466653 m 0.132292,-135.466653 0,135.466653 m 0.132291,-135.466653 0,135.466653 m 0.132292,-135.466653 0,135.466653 m 0.132292,-135.466653 0,135.466653 m 0.132291,-135.466653 0,135.466653 m 0.132292,-135.466653 0,135.466653 m 0.132291,-135.466653 0,135.466653 m 0.132292,-135.466653 0,135.466653 m 0.132292,-135.466653 0,135.466653 m 0.132291,-135.466653 0,135.466653 m 0.132292,-135.466653 0,135.466653 m 0.132292,-135.466653 0,135.466653 m 0.132291,-135.466653 0,135.466653 m 0.132292,-135.466653 0,135.466653 m 0.132292,-135.466653 0,135.466653 m 0.132291,-135.466653 0,135.466653 m 0.132292,-135.466653 0,135.466653 m 0.132292,-135.466653 0,135.466653 m 0.132291,-135.466653 0,135.466653 m 0.132292,-135.466653 0,135.466653 m 0.132292,-135.466653 0,135.466653 m 0.132291,-135.466653 0,135.466653 m 0.132292,-135.466653 0,135.466653 m 0.132292,-135.466653 0,135.466653 m 0.132291,-135.466653 0,135.466653 m 0.132292,-135.466653 0,135.466653 m 0.132292,-135.466653 0,135.466653 m 0.132291,-135.466653 0,135.466653 m 0.132292,-135.466653 0,135.466653 m 0.132292,-135.466653 0,135.466653 m 0.132291,-135.466653 0,135.466653 m 0.132292,-135.466653 0,135.466653 m 0.132292,-135.466653 0,135.466653 m 0.132291,-135.466653 0,135.466653 m 0.132292,-135.466653 0,135.466653 m 0.132292,-135.466653 0,135.466653 m 0.132291,-135.466653 0,135.466653 m 0.132292,-135.466653 0,135.466653 m 0.132292,-135.466653 0,135.466653 m 0.132291,-135.466653 0,135.466653 m 0.132292,-135.466653 0,135.466653 m 0.132292,-135.466653 0,135.466653 m 0.132291,-135.466653 0,135.466653 m 0.132292,-135.466653 0,135.466653 m 0.132292,-135.466653 0,135.466653 m 0.132291,-135.466653 0,135.466653 m 0.132292,-135.466653 0,135.466653 m 0.132292,-135.466653 0,135.466653 m 0.132291,-135.466653 0,135.466653 m 0.132292,-135.466653 0,135.466653 m 0.132292,-135.466653 0,135.466653 m 0.132291,-135.466653 0,135.466653 m 0.132292,-135.466653 0,135.466653 m 0.132292,-135.466653 0,135.466653 m 0.132291,-135.466653 0,135.466653 m 0.132292,-135.466653 0,135.466653 m 0.132292,-135.466653 0,135.466653 m 0.132291,-135.466653 0,135.466653 m 0.132292,-135.466653 0,135.466653 m 0.132292,-135.466653 0,135.466653 m 0.132291,-135.466653 0,135.466653 m 0.132292,-135.466653 0,135.466653 m 0.132292,-135.466653 0,135.466653 m 0.132291,-135.466653 0,135.466653 m 0.132292,-135.466653 0,135.466653 m 0.132292,-135.466653 0,135.466653 m 0.132291,-135.466653 0,135.466653 m 0.132292,-135.466653 0,135.466653 m 0.132292,-135.466653 0,135.466653 m 0.132291,-135.466653 0,135.466653 m 0.132292,-135.466653 0,135.466653 m 0.132292,-135.466653 0,135.466653 m 0.132291,-135.466653 0,135.466653 m 0.132292,-135.466653 0,135.466653 m 0.132292,-135.466653 0,135.466653 m 0.132291,-135.466653 0,135.466653 m 0.132292,-135.466653 0,135.466653 m 0.132292,-135.466653 0,135.466653 m 0.132291,-135.466653 0,135.466653 m 0.132292,-135.466653 0,135.466653 m 0.132292,-135.466653 0,135.466653 m 0.132291,-135.466653 0,135.466653 m 0.132292,-135.466653 0,135.466653 m 0.132292,-135.466653 0,135.466653 m 0.132291,-135.466653 0,135.466653 m 0.132292,-135.466653 0,135.466653 m 0.132292,-135.466653 0,135.466653 m 0.132291,-135.466653 0,135.466653 m 0.132292,-135.466653 0,135.466653 m 0.132292,-135.466653 0,135.466653 m 0.132291,-135.466653 0,135.466653 m 0.132292,-135.466653 0,135.466653 m 0.132292,-135.466653 0,135.466653 m 0.132291,-135.466653 0,135.466653 m 0.132292,-135.466653 0,135.466653 m 0.132292,-135.466653 0,135.466653 m 0.132291,-135.466653 0,135.466653 m 0.132292,-135.466653 0,135.466653 m 0.132292,-135.466653 0,135.466653 m 0.132291,-135.466653 0,135.466653 m 0.132292,-135.466653 0,135.466653 m 0.132292,-135.466653 0,135.466653 m 0.132291,-135.466653 0,135.466653 m 0.132292,-135.466653 0,135.466653 m 0.132292,-135.466653 0,135.466653 m 0.132291,-135.466653 0,135.466653 m 0.132292,-135.466653 0,135.466653 m 0.132292,-135.466653 0,135.466653 m 0.132291,-135.466653 0,135.466653 m 0.132292,-135.466653 0,135.466653 m 0.132292,-135.466653 0,135.466653 m 0.132291,-135.466653 0,135.466653 m 0.132292,-135.466653 0,135.466653 m 0.132292,-135.466653 0,135.466653 m 0.132291,-135.466653 0,135.466653 m 0.132292,-135.466653 0,135.466653 m 0.132291,-135.466653 0,135.466653 m 0.132292,-135.466653 0,135.466653 m 0.132292,-135.466653 0,135.466653 m 0.132291,-135.466653 0,135.466653 m 0.132292,-135.466653 0,135.466653 m 0.132292,-135.466653 0,135.466653 m 0.132291,-135.466653 0,135.466653 m 0.132292,-135.466653 0,135.466653 m 0.132292,-135.466653 0,135.466653 m 0.132291,-135.466653 0,135.466653 m 0.132292,-135.466653 0,135.466653 m 0.132292,-135.466653 0,135.466653 m 0.132291,-135.466653 0,135.466653 m 0.132292,-135.466653 0,135.466653 m 0.132292,-135.466653 0,135.466653 m 0.132291,-135.466653 0,135.466653 m 0.132292,-135.466653 0,135.466653 m 0.132292,-135.466653 0,135.466653 m 0.132291,-135.466653 0,135.466653 m 0.132292,-135.466653 0,135.466653 m 0.132292,-135.466653 0,135.466653 m 0.132291,-135.466653 0,135.466653 m 0.132292,-135.466653 0,135.466653 m 0.132292,-135.466653 0,135.466653 m 0.132291,-135.466653 0,135.466653 m 0.132292,-135.466653 0,135.466653 m 0.132292,-135.466653 0,135.466653 m 0.132291,-135.466653 0,135.466653 m 0.132292,-135.466653 0,135.466653 m 0.132292,-135.466653 0,135.466653 m 0.132291,-135.466653 0,135.466653 m 0.132292,-135.466653 0,135.466653 m 0.132292,-135.466653 0,135.466653 m 0.132291,-135.466653 0,135.466653 m 0.132292,-135.466653 0,135.466653 m 0.132292,-135.466653 0,135.466653 m 0.132291,-135.466653 0,135.466653 m 0.132292,-135.466653 0,135.466653 m 0.132292,-135.466653 0,135.466653 m 0.132291,-135.466653 0,135.466653 m 0.132292,-135.466653 0,135.466653 m 0.132292,-135.466653 0,135.466653 m 0.132291,-135.466653 0,135.466653 m 0.132292,-135.466653 0,135.466653 m 0.132292,-135.466653 0,135.466653 m 0.132291,-135.466653 0,135.466653 m 0.132292,-135.466653 0,135.466653 m 0.132292,-135.466653 0,135.466653 m 0.132291,-135.466653 0,135.466653 m 0.132292,-135.466653 0,135.466653 m 0.132292,-135.466653 0,135.466653 m 0.132291,-135.466653 0,135.466653 m 0.132292,-135.466653 0,135.466653 m 0.132292,-135.466653 0,135.466653 m 0.132291,-135.466653 0,135.466653 m 0.132292,-135.466653 0,135.466653 m 0.132292,-135.466653 0,135.466653 m 0.132291,-135.466653 0,135.466653 m 0.132292,-135.466653 0,135.466653 m 0.132292,-135.466653 0,135.466653 m 0.132291,-135.466653 0,135.466653 m 0.132292,-135.466653 0,135.466653 m 0.132292,-135.466653 0,135.466653 m 0.132291,-135.466653 0,135.466653 m 0.132292,-135.466653 0,135.466653 m 0.132292,-135.466653 0,135.466653 m 0.132291,-135.466653 0,135.466653 m 0.132292,-135.466653 0,135.466653 m 0.132292,-135.466653 0,135.466653 m 0.132291,-135.466653 0,135.466653 m 0.132292,-135.466653 0,135.466653 m 0.132292,-135.466653 0,135.466653 m 0.132291,-135.466653 0,135.466653 m 0.132292,-135.466653 0,135.466653 m 0.132292,-135.466653 0,135.466653 m 0.132291,-135.466653 0,135.466653 m 0.132292,-135.466653 0,135.466653 m 0.132292,-135.466653 0,135.466653 m 0.132291,-135.466653 0,135.466653 m 0.132292,-135.466653 0,135.466653 m 0.132292,-135.466653 0,135.466653 m 0.132291,-135.466653 0,135.466653 m 0.132292,-135.466653 0,135.466653 m 0.132292,-135.466653 0,135.466653 m 0.132291,-135.466653 0,135.466653 m 0.132292,-135.466653 0,135.466653 m 0.132292,-135.466653 0,135.466653 m 0.132291,-135.466653 0,135.466653 m 0.132292,-135.466653 0,135.466653 m 0.132292,-135.466653 0,135.466653 m 0.132291,-135.466653 0,135.466653 m 0.132292,-135.466653 0,135.466653 m 0.132292,-135.466653 0,135.466653 m 0.132291,-135.466653 0,135.466653 m 0.132292,-135.466653 0,135.466653 m 0.132292,-135.466653 0,135.466653 m 0.132291,-135.466653 0,135.466653 m 0.132292,-135.466653 0,135.466653 m 0.132292,-135.466653 0,135.466653 m 0.132291,-135.466653 0,135.466653 m 0.132292,-135.466653 0,135.466653 m 0.132292,-135.466653 0,135.466653 m 0.132291,-135.466653 0,135.466653 m 0.132292,-135.466653 0,135.466653 m 0.132292,-135.466653 0,135.466653 m 0.132291,-135.466653 0,135.466653 m 0.132292,-135.466653 0,135.466653 m 0.132292,-135.466653 0,135.466653 m 0.132291,-135.466653 0,135.466653 m 0.132292,-135.466653 0,135.466653 m 0.132291,-135.466653 0,135.466653 m 0.132292,-135.466653 0,135.466653 m 0.132292,-135.466653 0,135.466653 m 0.132291,-135.466653 0,135.466653 m 0.132292,-135.466653 0,135.466653 m 0.132292,-135.466653 0,135.466653 m 0.132291,-135.466653 0,135.466653 m 0.132292,-135.466653 0,135.466653 m 0.132292,-135.466653 0,135.466653 m 0.132294,-135.466653 0,135.466653 m 0.13229,-135.466653 0,135.466653 m 0.13229,-135.466653 0,135.466653 m 0.13229,-135.466653 0,135.466653 m 0.13229,-135.466653 0,135.466653 m 0.1323,-135.466653 0,135.466653 m 0.13229,-135.466653 0,135.466653 m 0.13229,-135.466653 0,135.466653 m 0.13229,-135.466653 0,135.466653 m 0.13229,-135.466653 0,135.466653 m 0.13229,-135.466653 0,135.466653 m 0.1323,-135.466653 0,135.466653 m 0.13229,-135.466653 0,135.466653 m 0.13229,-135.466653 0,135.466653 m 0.13229,-135.466653 0,135.466653 m 0.13229,-135.466653 0,135.466653 m 0.13229,-135.466653 0,135.466653 m 0.1323,-135.466653 0,135.466653 m 0.13229,-135.466653 0,135.466653 m 0.13229,-135.466653 0,135.466653 m 0.13229,-135.466653 0,135.466653 m 0.13229,-135.466653 0,135.466653 m 0.13229,-135.466653 0,135.466653 m 0.1323,-135.466653 0,135.466653 m 0.13229,-135.466653 0,135.466653 m 0.13229,-135.466653 0,135.466653 m 0.13229,-135.466653 0,135.466653 m 0.13229,-135.466653 0,135.466653 m 0.13229,-135.466653 0,135.466653 m 0.1323,-135.466653 0,135.466653 m 0.13229,-135.466653 0,135.466653 m 0.13229,-135.466653 0,135.466653 m 0.13229,-135.466653 0,135.466653 m 0.13229,-135.466653 0,135.466653 m 0.13229,-135.466653 0,135.466653 m 0.1323,-135.466653 0,135.466653 m 0.13229,-135.466653 0,135.466653 m 0.13229,-135.466653 0,135.466653 m 0.13229,-135.466653 0,135.466653 m 0.13229,-135.466653 0,135.466653 m 0.13229,-135.466653 0,135.466653 m 0.1323,-135.466653 0,135.466653 m 0.13229,-135.466653 0,135.466653 m 0.13229,-135.466653 0,135.466653 m 0.13229,-135.466653 0,135.466653 m 0.13229,-135.466653 0,135.466653 m 0.13229,-135.466653 0,135.466653 m 0.1323,-135.466653 0,135.466653 m 0.13229,-135.466653 0,135.466653 m 0.13229,-135.466653 0,135.466653 m 0.13229,-135.466653 0,135.466653 m 0.13229,-135.466653 0,135.466653 m 0.13229,-135.466653 0,135.466653 m 0.1323,-135.466653 0,135.466653 m 0.13229,-135.466653 0,135.466653 m 0.13229,-135.466653 0,135.466653 m 0.13229,-135.466653 0,135.466653 m 0.13229,-135.466653 0,135.466653 m 0.13229,-135.466653 0,135.466653 m 0.1323,-135.466653 0,135.466653 m 0.13229,-135.466653 0,135.466653 m 0.13229,-135.466653 0,135.466653 m 0.13229,-135.466653 0,135.466653 m 0.13229,-135.466653 0,135.466653 m 0.13229,-135.466653 0,135.466653 m 0.1323,-135.466653 0,135.466653 m 0.13229,-135.466653 0,135.466653 m 0.13229,-135.466653 0,135.466653 m 0.13229,-135.466653 0,135.466653 m 0.13229,-135.466653 0,135.466653 m 0.13229,-135.466653 0,135.466653 m 0.1323,-135.466653 0,135.466653 m 0.13229,-135.466653 0,135.466653 m 0.13229,-135.466653 0,135.466653 m 0.13229,-135.466653 0,135.466653 m 0.13229,-135.466653 0,135.466653 m 0.13229,-135.466653 0,135.466653 m 0.1323,-135.466653 0,135.466653 m 0.13229,-135.466653 0,135.466653 m 0.13229,-135.466653 0,135.466653 m 0.13229,-135.466653 0,135.466653 m 0.13229,-135.466653 0,135.466653 m 0.13229,-135.466653 0,135.466653 m 0.1323,-135.466653 0,135.466653 m 0.13229,-135.466653 0,135.466653 m 0.13229,-135.466653 0,135.466653 m 0.13229,-135.466653 0,135.466653 m 0.13229,-135.466653 0,135.466653 m 0.13229,-135.466653 0,135.466653 m 0.1323,-135.466653 0,135.466653 m 0.13229,-135.466653 0,135.466653 m 0.13229,-135.466653 0,135.466653 m 0.13229,-135.466653 0,135.466653 m 0.13229,-135.466653 0,135.466653 m 0.13229,-135.466653 0,135.466653 m 0.1323,-135.466653 0,135.466653 m 0.13229,-135.466653 0,135.466653 m 0.13229,-135.466653 0,135.466653 m 0.13229,-135.466653 0,135.466653 m 0.13229,-135.466653 0,135.466653 m 0.13229,-135.466653 0,135.466653 m 0.1323,-135.466653 0,135.466653 m 0.13229,-135.466653 0,135.466653 m 0.13229,-135.466653 0,135.466653 m 0.13229,-135.466653 0,135.466653 m 0.13229,-135.466653 0,135.466653 m 0.13229,-135.466653 0,135.466653 m 0.1323,-135.466653 0,135.466653 m 0.13229,-135.466653 0,135.466653 m 0.13229,-135.466653 0,135.466653 m 0.13229,-135.466653 0,135.466653 m 0.13229,-135.466653 0,135.466653 m 0.13229,-135.466653 0,135.466653 m 0.1323,-135.466653 0,135.466653 m 0.13229,-135.466653 0,135.466653 m 0.13229,-135.466653 0,135.466653 m 0.13229,-135.466653 0,135.466653 m 0.13229,-135.466653 0,135.466653 m 0.13229,-135.466653 0,135.466653 m 0.1323,-135.466653 0,135.466653 m 0.13229,-135.466653 0,135.466653 m 0.13229,-135.466653 0,135.466653 m 0.13229,-135.466653 0,135.466653 m 0.13229,-135.466653 0,135.466653 m 0.13229,-135.466653 0,135.466653 m 0.1323,-135.466653 0,135.466653 m 0.13229,-135.466653 0,135.466653 m 0.13229,-135.466653 0,135.466653 m 0.13229,-135.466653 0,135.466653 m 0.13229,-135.466653 0,135.466653 m 0.13229,-135.466653 0,135.466653 m 0.1323,-135.466653 0,135.466653 m 0.13229,-135.466653 0,135.466653 m 0.13229,-135.466653 0,135.466653 m 0.13229,-135.466653 0,135.466653 m 0.13229,-135.466653 0,135.466653 m 0.13229,-135.466653 0,135.466653 m 0.1323,-135.466653 0,135.466653 m 0.13229,-135.466653 0,135.466653 m 0.13229,-135.466653 0,135.466653 m 0.13229,-135.466653 0,135.466653 m 0.13229,-135.466653 0,135.466653 m 0.13229,-135.466653 0,135.466653 m 0.1323,-135.466653 0,135.466653 m 0.13229,-135.466653 0,135.466653 m 0.13229,-135.466653 0,135.466653 m 0.13229,-135.466653 0,135.466653 m 0.13229,-135.466653 0,135.466653 m 0.13229,-135.466653 0,135.466653 m 0.1323,-135.466653 0,135.466653 m 0.13229,-135.466653 0,135.466653 m 0.13229,-135.466653 0,135.466653 m 0.13229,-135.466653 0,135.466653 m 0.13229,-135.466653 0,135.466653 m 0.13229,-135.466653 0,135.466653 m 0.1323,-135.466653 0,135.466653 m 0.13229,-135.466653 0,135.466653 m 0.13229,-135.466653 0,135.466653 m 0.13229,-135.466653 0,135.466653 m 0.13229,-135.466653 0,135.466653 m 0.13229,-135.466653 0,135.466653 m 0.1323,-135.466653 0,135.466653 m 0.13229,-135.466653 0,135.466653 m 0.13229,-135.466653 0,135.466653 m 0.13229,-135.466653 0,135.466653 m 0.13229,-135.466653 0,135.466653 m 0.13229,-135.466653 0,135.466653 m 0.1323,-135.466653 0,135.466653 m 0.13229,-135.466653 0,135.466653 m 0.13229,-135.466653 0,135.466653 m 0.13229,-135.466653 0,135.466653 m 0.13229,-135.466653 0,135.466653 m 0.13229,-135.466653 0,135.466653 m 0.1323,-135.466653 0,135.466653 m 0.13229,-135.466653 0,135.466653 m 0.13229,-135.466653 0,135.466653 m 0.13229,-135.466653 0,135.466653 m 0.13229,-135.466653 0,135.466653 m 0.13229,-135.466653 0,135.466653 m 0.1323,-135.466653 0,135.466653 m 0.13229,-135.466653 0,135.466653 m 0.13229,-135.466653 0,135.466653 m 0.13229,-135.466653 0,135.466653 m 0.13229,-135.466653 0,135.466653 m 0.13229,-135.466653 0,135.466653 m 0.1323,-135.466653 0,135.466653 m 0.13229,-135.466653 0,135.466653 m 0.13229,-135.466653 0,135.466653 m 0.13229,-135.466653 0,135.466653 m 0.13229,-135.466653 0,135.466653 m 0.13229,-135.466653 0,135.466653 m 0.1323,-135.466653 0,135.466653 m 0.13229,-135.466653 0,135.466653 m 0.13229,-135.466653 0,135.466653 m 0.13229,-135.466653 0,135.466653 m 0.13229,-135.466653 0,135.466653 m 0.13229,-135.466653 0,135.466653 m 0.1323,-135.466653 0,135.466653 m 0.13229,-135.466653 0,135.466653 m 0.13229,-135.466653 0,135.466653 m 0.13229,-135.466653 0,135.466653 m 0.13229,-135.466653 0,135.466653 m 0.13229,-135.466653 0,135.466653 m 0.1323,-135.466653 0,135.466653 m 0.13229,-135.466653 0,135.466653 m 0.13229,-135.466653 0,135.466653 m 0.13229,-135.466653 0,135.466653 m 0.13229,-135.466653 0,135.466653 m 0.13229,-135.466653 0,135.466653 m 0.1323,-135.466653 0,135.466653 m 0.13229,-135.466653 0,135.466653 m 0.13229,-135.466653 0,135.466653 m 0.13229,-135.466653 0,135.466653 m 0.13229,-135.466653 0,135.466653 m 0.13229,-135.466653 0,135.466653 m 0.1323,-135.466653 0,135.466653 m 0.13229,-135.466653 0,135.466653 m 0.13229,-135.466653 0,135.466653 m 0.13229,-135.466653 0,135.466653 m 0.13229,-135.466653 0,135.466653 m 0.13229,-135.466653 0,135.466653 m 0.1323,-135.466653 0,135.466653 m 0.13229,-135.466653 0,135.466653 m 0.13229,-135.466653 0,135.466653 m 0.13229,-135.466653 0,135.466653 m 0.13229,-135.466653 0,135.466653 m 0.13229,-135.466653 0,135.466653 m 0.1323,-135.466653 0,135.466653 m 0.13229,-135.466653 0,135.466653 m 0.13229,-135.466653 0,135.466653 m 0.13229,-135.466653 0,135.466653 m 0.13229,-135.466653 0,135.466653 m 0.13229,-135.466653 0,135.466653 m 0.1323,-135.466653 0,135.466653 m 0.13229,-135.466653 0,135.466653 m 0.13229,-135.466653 0,135.466653 m 0.13229,-135.466653 0,135.466653 m 0.13229,-135.466653 0,135.466653 m 0.13229,-135.466653 0,135.466653 m 0.1323,-135.466653 0,135.466653 m 0.13229,-135.466653 0,135.466653 m 0.13229,-135.466653 0,135.466653 m 0.13229,-135.466653 0,135.466653 m 0.13229,-135.466653 0,135.466653 m 0.13229,-135.466653 0,135.466653 m 0.1323,-135.466653 0,135.466653 m 0.13229,-135.466653 0,135.466653 m 0.13229,-135.466653 0,135.466653 m 0.13229,-135.466653 0,135.466653 m 0.13229,-135.466653 0,135.466653 m 0.13229,-135.466653 0,135.466653 m 0.1323,-135.466653 0,135.466653 m 0.13229,-135.466653 0,135.466653 m 0.13229,-135.466653 0,135.466653 m 0.13229,-135.466653 0,135.466653 m 0.13229,-135.466653 0,135.466653 m 0.13229,-135.466653 0,135.466653 m 0.1323,-135.466653 0,135.466653 m 0.13229,-135.466653 0,135.466653 m 0.13229,-135.466653 0,135.466653 m 0.13229,-135.466653 0,135.466653 m 0.13229,-135.466653 0,135.466653 m 0.13229,-135.466653 0,135.466653 m 0.13229,-135.466653 0,135.466653 m 0.1323,-135.466653 0,135.466653 m 0.13229,-135.466653 0,135.466653 m 0.13229,-135.466653 0,135.466653 m 0.13229,-135.466653 0,135.466653 m 0.13229,-135.466653 0,135.466653 m 0.13229,-135.466653 0,135.466653 m 0.1323,-135.466653 0,135.466653 m 0.13229,-135.466653 0,135.466653 m 0.13229,-135.466653 0,135.466653 m 0.13229,-135.466653 0,135.466653 m 0.13229,-135.466653 0,135.466653 m 0.13229,-135.466653 0,135.466653 m 0.1323,-135.466653 0,135.466653 m 0.13229,-135.466653 0,135.466653 m 0.13229,-135.466653 0,135.466653 m 0.13229,-135.466653 0,135.466653 m 0.13229,-135.466653 0,135.466653 m 0.13229,-135.466653 0,135.466653 m 0.1323,-135.466653 0,135.466653 m 0.13229,-135.466653 0,135.466653 m 0.13229,-135.466653 0,135.466653 m 0.13229,-135.466653 0,135.466653 m 0.13229,-135.466653 0,135.466653 m 0.13229,-135.466653 0,135.466653 m 0.1323,-135.466653 0,135.466653 m 0.13229,-135.466653 0,135.466653 m 0.13229,-135.466653 0,135.466653 m 0.13229,-135.466653 0,135.466653 m 0.13229,-135.466653 0,135.466653 m 0.13229,-135.466653 0,135.466653 m 0.1323,-135.466653 0,135.466653 m 0.13229,-135.466653 0,135.466653 m 0.13229,-135.466653 0,135.466653 m 0.13229,-135.466653 0,135.466653 m 0.13229,-135.466653 0,135.466653 m 0.13229,-135.466653 0,135.466653 m 0.1323,-135.466653 0,135.466653 m 0.13229,-135.466653 0,135.466653 m 0.13229,-135.466653 0,135.466653 m 0.13229,-135.466653 0,135.466653 m 0.13229,-135.466653 0,135.466653 m 0.13229,-135.466653 0,135.466653 m 0.1323,-135.466653 0,135.466653 m 0.13229,-135.466653 0,135.466653 m 0.13229,-135.466653 0,135.466653 m 0.13229,-135.466653 0,135.466653 m 0.13229,-135.466653 0,135.466653 m 0.13229,-135.466653 0,135.466653 m 0.1323,-135.466653 0,135.466653 m 0.13229,-135.466653 0,135.466653 m 0.13229,-135.466653 0,135.466653 m 0.13229,-135.466653 0,135.466653 m 0.13229,-135.466653 0,135.466653 m 0.13229,-135.466653 0,135.466653 m 0.1323,-135.466653 0,135.466653 m 0.13229,-135.466653 0,135.466653 m 0.13229,-135.466653 0,135.466653 m 0.13229,-135.466653 0,135.466653 m 0.13229,-135.466653 0,135.466653 m 0.13229,-135.466653 0,135.466653 m 0.1323,-135.466653 0,135.466653 m 0.13229,-135.466653 0,135.466653 m 0.13229,-135.466653 0,135.466653 m 0.13229,-135.466653 0,135.466653 m 0.13229,-135.466653 0,135.466653 m 0.13229,-135.466653 0,135.466653 m 0.1323,-135.466653 0,135.466653 m 0.13229,-135.466653 0,135.466653 m 0.13229,-135.466653 0,135.466653 m 0.13229,-135.466653 0,135.466653 m 0.13229,-135.466653 0,135.466653 m 0.13229,-135.466653 0,135.466653 m 0.1323,-135.466653 0,135.466653 m 0.13229,-135.466653 0,135.466653 m 0.13229,-135.466653 0,135.466653 m 0.13229,-135.466653 0,135.466653 m 0.13229,-135.466653 0,135.466653 m 0.13229,-135.466653 0,135.466653 m 0.1323,-135.466653 0,135.466653 m 0.13229,-135.466653 0,135.466653 m 0.13229,-135.466653 0,135.466653 m 0.13229,-135.466653 0,135.466653 m 0.13229,-135.466653 0,135.466653 m 0.13229,-135.466653 0,135.466653 m 0.1323,-135.466653 0,135.466653 m 0.13229,-135.466653 0,135.466653 m 0.13229,-135.466653 0,135.466653 m 0.13229,-135.466653 0,135.466653 m 0.13229,-135.466653 0,135.466653 m 0.13229,-135.466653 0,135.466653 m 0.1323,-135.466653 0,135.466653 m 0.13229,-135.466653 0,135.466653 m 0.13229,-135.466653 0,135.466653 m 0.13229,-135.466653 0,135.466653 m 0.13229,-135.466653 0,135.466653 m 0.13229,-135.466653 0,135.466653 m 0.1323,-135.466653 0,135.466653 m 0.13229,-135.466653 0,135.466653 m 0.13229,-135.466653 0,135.466653 m 0.13229,-135.466653 0,135.466653 m 0.13229,-135.466653 0,135.466653 m 0.13229,-135.466653 0,135.466653 m 0.1323,-135.466653 0,135.466653 m 0.13229,-135.466653 0,135.466653 m 0.13229,-135.466653 0,135.466653 m 0.13229,-135.466653 0,135.466653 m 0.13229,-135.466653 0,135.466653 m 0.13229,-135.466653 0,135.466653 m 0.1323,-135.466653 0,135.466653 m 0.13229,-135.466653 0,135.466653 m 0.13229,-135.466653 0,135.466653 m 0.13229,-135.466653 0,135.466653 m 0.13229,-135.466653 0,135.466653 m 0.13229,-135.466653 0,135.466653 m 0.1323,-135.466653 0,135.466653 m 0.13229,-135.466653 0,135.466653 m 0.13229,-135.466653 0,135.466653 m 0.13229,-135.466653 0,135.466653 m 0.13229,-135.466653 0,135.466653 m 0.13229,-135.466653 0,135.466653 m 0.1323,-135.466653 0,135.466653 m 0.13229,-135.466653 0,135.466653 m 0.13229,-135.466653 0,135.466653 m 0.13229,-135.466653 0,135.466653 m 0.13229,-135.466653 0,135.466653 m 0.13229,-135.466653 0,135.466653 m 0.1323,-135.466653 0,135.466653 m 0.13229,-135.466653 0,135.466653 m 0.13229,-135.466653 0,135.466653 m 0.13229,-135.466653 0,135.466653 m 0.13229,-135.466653 0,135.466653 m 0.13229,-135.466653 0,135.466653 m 0.1323,-135.466653 0,135.466653 m 0.13229,-135.466653 0,135.466653 m 0.13229,-135.466653 0,135.466653 m 0.13229,-135.466653 0,135.466653 m 0.13229,-135.466653 0,135.466653 m 0.13229,-135.466653 0,135.466653 m 0.1323,-135.466653 0,135.466653 m 0.13229,-135.466653 0,135.466653 m 0.13229,-135.466653 0,135.466653 m 0.13229,-135.466653 0,135.466653 m 0.13229,-135.466653 0,135.466653 m 0.13229,-135.466653 0,135.466653 m 0.1323,-135.466653 0,135.466653 m 0.13229,-135.466653 0,135.466653 m 0.13229,-135.466653 0,135.466653 m 0.13229,-135.466653 0,135.466653 m 0.13229,-135.466653 0,135.466653 m 0.13229,-135.466653 0,135.466653 m 0.1323,-135.466653 0,135.466653 m 0.13229,-135.466653 0,135.466653 m 0.13229,-135.466653 0,135.466653 M 19.720908,55.983479 l 135.466652,0 m -135.466652,0.264583 135.466652,0 m -135.466652,0.264584 135.466652,0 m -135.466652,0.264583 135.466652,0 m -135.466652,0.264583 135.466652,0 m -135.466652,0.264584 135.466652,0 m -135.466652,0.264583 135.466652,0 m -135.466652,0.264583 135.466652,0 m -135.466652,0.264584 135.466652,0 m -135.466652,0.264583 135.466652,0 m -135.466652,0.264583 135.466652,0 m -135.466652,0.264584 135.466652,0 m -135.466652,0.264583 135.466652,0 m -135.466652,0.264583 135.466652,0 m -135.466652,0.264584 135.466652,0 m -135.466652,0.264583 135.466652,0 m -135.466652,0.264583 135.466652,0 m -135.466652,0.264584 135.466652,0 m -135.466652,0.264583 135.466652,0 m -135.466652,0.264583 135.466652,0 m -135.466652,0.264584 135.466652,0 m -135.466652,0.264583 135.466652,0 m -135.466652,0.264583 135.466652,0 m -135.466652,0.264584 135.466652,0 m -135.466652,0.264583 135.466652,0 m -135.466652,0.264583 135.466652,0 m -135.466652,0.264584 135.466652,0 m -135.466652,0.264583 135.466652,0 m -135.466652,0.264583 135.466652,0 m -135.466652,0.264584 135.466652,0 m -135.466652,0.264583 135.466652,0 m -135.466652,0.264583 135.466652,0 m -135.466652,0.264584 135.466652,0 m -135.466652,0.264583 135.466652,0 m -135.466652,0.264583 135.466652,0 m -135.466652,0.264583 135.466652,0 m -135.466652,0.264584 135.466652,0 m -135.466652,0.264583 135.466652,0 m -135.466652,0.264583 135.466652,0 m -135.466652,0.264584 135.466652,0 m -135.466652,0.264583 135.466652,0 m -135.466652,0.264583 135.466652,0 m -135.466652,0.264584 135.466652,0 m -135.466652,0.264583 135.466652,0 m -135.466652,0.264583 135.466652,0 m -135.466652,0.264584 135.466652,0 m -135.466652,0.264583 135.466652,0 m -135.466652,0.264583 135.466652,0 m -135.466652,0.264584 135.466652,0 m -135.466652,0.264583 135.466652,0 m -135.466652,0.264583 135.466652,0 m -135.466652,0.264584 135.466652,0 m -135.466652,0.264583 135.466652,0 m -135.466652,0.264583 135.466652,0 m -135.466652,0.264584 135.466652,0 m -135.466652,0.264583 135.466652,0 m -135.466652,0.264583 135.466652,0 m -135.466652,0.264584 135.466652,0 m -135.466652,0.264583 135.466652,0 m -135.466652,0.264583 135.466652,0 m -135.466652,0.264584 135.466652,0 m -135.466652,0.264583 135.466652,0 m -135.466652,0.264583 135.466652,0 m -135.466652,0.264584 135.466652,0 m -135.466652,0.264583 135.466652,0 m -135.466652,0.264583 135.466652,0 m -135.466652,0.264584 135.466652,0 m -135.466652,0.264583 135.466652,0 m -135.466652,0.264583 135.466652,0 m -135.466652,0.264584 135.466652,0 m -135.466652,0.264583 135.466652,0 m -135.466652,0.264583 135.466652,0 m -135.466652,0.264584 135.466652,0 m -135.466652,0.264583 135.466652,0 m -135.466652,0.264583 135.466652,0 m -135.466652,0.264584 135.466652,0 m -135.466652,0.264583 135.466652,0 m -135.466652,0.264583 135.466652,0 m -135.466652,0.264584 135.466652,0 m -135.466652,0.264583 135.466652,0 m -135.466652,0.264583 135.466652,0 m -135.466652,0.264584 135.466652,0 m -135.466652,0.264583 135.466652,0 m -135.466652,0.264583 135.466652,0 m -135.466652,0.264584 135.466652,0 m -135.466652,0.264583 135.466652,0 m -135.466652,0.264583 135.466652,0 m -135.466652,0.264584 135.466652,0 m -135.466652,0.264583 135.466652,0 m -135.466652,0.264583 135.466652,0 m -135.466652,0.264583 135.466652,0 m -135.466652,0.264584 135.466652,0 m -135.466652,0.264583 135.466652,0 m -135.466652,0.264583 135.466652,0 m -135.466652,0.264584 135.466652,0 m -135.466652,0.264583 135.466652,0 m -135.466652,0.264583 135.466652,0 m -135.466652,0.264584 135.466652,0 m -135.466652,0.264583 135.466652,0 m -135.466652,0.264583 135.466652,0 m -135.466652,0.264584 135.466652,0 m -135.466652,0.264583 135.466652,0 m -135.466652,0.264583 135.466652,0 m -135.466652,0.264584 135.466652,0 m -135.466652,0.264583 135.466652,0 m -135.466652,0.264583 135.466652,0 m -135.466652,0.264584 135.466652,0 m -135.466652,0.264583 135.466652,0 m -135.466652,0.264583 135.466652,0 m -135.466652,0.264584 135.466652,0 m -135.466652,0.264583 135.466652,0 m -135.466652,0.264583 135.466652,0 m -135.466652,0.264584 135.466652,0 m -135.466652,0.264583 135.466652,0 m -135.466652,0.264583 135.466652,0 m -135.466652,0.264584 135.466652,0 m -135.466652,0.264583 135.466652,0 m -135.466652,0.264583 135.466652,0 m -135.466652,0.264584 135.466652,0 m -135.466652,0.264583 135.466652,0 m -135.466652,0.264583 135.466652,0 m -135.466652,0.264584 135.466652,0 m -135.466652,0.264583 135.466652,0 m -135.466652,0.264583 135.466652,0 m -135.466652,0.264584 135.466652,0 m -135.466652,0.264583 135.466652,0 m -135.466652,0.264583 135.466652,0 m -135.466652,0.264584 135.466652,0 m -135.466652,0.264583 135.466652,0 m -135.466652,0.264583 135.466652,0 m -135.466652,0.264584 135.466652,0 m -135.466652,0.264583 135.466652,0 m -135.466652,0.264583 135.466652,0 m -135.466652,0.264584 135.466652,0 m -135.466652,0.264583 135.466652,0 m -135.466652,0.264583 135.466652,0 m -135.466652,0.264584 135.466652,0 m -135.466652,0.264583 135.466652,0 m -135.466652,0.264583 135.466652,0 m -135.466652,0.264584 135.466652,0 m -135.466652,0.264583 135.466652,0 m -135.466652,0.264583 135.466652,0 m -135.466652,0.264584 135.466652,0 m -135.466652,0.264583 135.466652,0 m -135.466652,0.264583 135.466652,0 m -135.466652,0.264583 135.466652,0 m -135.466652,0.264584 135.466652,0 m -135.466652,0.264583 135.466652,0 m -135.466652,0.264583 135.466652,0 m -135.466652,0.264584 135.466652,0 m -135.466652,0.264583 135.466652,0 m -135.466652,0.264583 135.466652,0 m -135.466652,0.264584 135.466652,0 m -135.466652,0.264583 135.466652,0 m -135.466652,0.264583 135.466652,0 m -135.466652,0.264584 135.466652,0 m -135.466652,0.264583 135.466652,0 m -135.466652,0.264583 135.466652,0 m -135.466652,0.264584 135.466652,0 m -135.466652,0.264583 135.466652,0 m -135.466652,0.264583 135.466652,0 m -135.466652,0.264584 135.466652,0 m -135.466652,0.264583 135.466652,0 m -135.466652,0.264583 135.466652,0 m -135.466652,0.264584 135.466652,0 m -135.466652,0.264583 135.466652,0 m -135.466652,0.264583 135.466652,0 m -135.466652,0.264579 135.466652,0 m -135.466652,0.26459 135.466652,0 m -135.466652,0.26458 135.466652,0 m -135.466652,0.26458 135.466652,0 m -135.466652,0.26459 135.466652,0 m -135.466652,0.26458 135.466652,0 m -135.466652,0.26458 135.466652,0 m -135.466652,0.26459 135.466652,0 m -135.466652,0.26458 135.466652,0 m -135.466652,0.26458 135.466652,0 m -135.466652,0.26459 135.466652,0 m -135.466652,0.26458 135.466652,0 m -135.466652,0.26458 135.466652,0 m -135.466652,0.26459 135.466652,0 m -135.466652,0.26458 135.466652,0 m -135.466652,0.26458 135.466652,0 m -135.466652,0.26459 135.466652,0 m -135.466652,0.26458 135.466652,0 m -135.466652,0.26458 135.466652,0 m -135.466652,0.26459 135.466652,0 m -135.466652,0.26458 135.466652,0 m -135.466652,0.26458 135.466652,0 m -135.466652,0.26459 135.466652,0 m -135.466652,0.26458 135.466652,0 m -135.466652,0.26458 135.466652,0 m -135.466652,0.26459 135.466652,0 m -135.466652,0.26458 135.466652,0 m -135.466652,0.26458 135.466652,0 m -135.466652,0.26459 135.466652,0 m -135.466652,0.26458 135.466652,0 m -135.466652,0.26458 135.466652,0 m -135.466652,0.26459 135.466652,0 m -135.466652,0.26458 135.466652,0 m -135.466652,0.26458 135.466652,0 m -135.466652,0.26459 135.466652,0 m -135.466652,0.26458 135.466652,0 m -135.466652,0.26458 135.466652,0 m -135.466652,0.26459 135.466652,0 m -135.466652,0.26458 135.466652,0 m -135.466652,0.26458 135.466652,0 m -135.466652,0.26459 135.466652,0 m -135.466652,0.26458 135.466652,0 m -135.466652,0.26458 135.466652,0 m -135.466652,0.26459 135.466652,0 m -135.466652,0.26458 135.466652,0 m -135.466652,0.26458 135.466652,0 m -135.466652,0.26459 135.466652,0 m -135.466652,0.26458 135.466652,0 m -135.466652,0.26458 135.466652,0 m -135.466652,0.26459 135.466652,0 m -135.466652,0.26458 135.466652,0 m -135.466652,0.26458 135.466652,0 m -135.466652,0.26459 135.466652,0 m -135.466652,0.26458 135.466652,0 m -135.466652,0.26458 135.466652,0 m -135.466652,0.26459 135.466652,0 m -135.466652,0.26458 135.466652,0 m -135.466652,0.26458 135.466652,0 m -135.466652,0.26459 135.466652,0 m -135.466652,0.26458 135.466652,0 m -135.466652,0.26458 135.466652,0 m -135.466652,0.26459 135.466652,0 m -135.466652,0.26458 135.466652,0 m -135.466652,0.26458 135.466652,0 m -135.466652,0.26459 135.466652,0 m -135.466652,0.26458 135.466652,0 m -135.466652,0.26458 135.466652,0 m -135.466652,0.26459 135.466652,0 m -135.466652,0.26458 135.466652,0 m -135.466652,0.26458 135.466652,0 m -135.466652,0.26459 135.466652,0 m -135.466652,0.26458 135.466652,0 m -135.466652,0.26458 135.466652,0 m -135.466652,0.26459 135.466652,0 m -135.466652,0.26458 135.466652,0 m -135.466652,0.26458 135.466652,0 m -135.466652,0.26459 135.466652,0 m -135.466652,0.26458 135.466652,0 m -135.466652,0.26458 135.466652,0 m -135.466652,0.26459 135.466652,0 m -135.466652,0.26458 135.466652,0 m -135.466652,0.26458 135.466652,0 m -135.466652,0.26459 135.466652,0 m -135.466652,0.26458 135.466652,0 m -135.466652,0.26458 135.466652,0 m -135.466652,0.26459 135.466652,0 m -135.466652,0.26458 135.466652,0 m -135.466652,0.26458 135.466652,0 m -135.466652,0.26459 135.466652,0 m -135.466652,0.26458 135.466652,0 m -135.466652,0.26458 135.466652,0 m -135.466652,0.26459 135.466652,0 m -135.466652,0.26458 135.466652,0 m -135.466652,0.26458 135.466652,0 m -135.466652,0.26459 135.466652,0 m -135.466652,0.26458 135.466652,0 m -135.466652,0.26458 135.466652,0 m -135.466652,0.26459 135.466652,0 m -135.466652,0.26458 135.466652,0 m -135.466652,0.26458 135.466652,0 m -135.466652,0.26459 135.466652,0 m -135.466652,0.26458 135.466652,0 m -135.466652,0.26458 135.466652,0 m -135.466652,0.26459 135.466652,0 m -135.466652,0.26458 135.466652,0 m -135.466652,0.26458 135.466652,0 m -135.466652,0.26459 135.466652,0 m -135.466652,0.26458 135.466652,0 m -135.466652,0.26458 135.466652,0 m -135.466652,0.26459 135.466652,0 m -135.466652,0.26458 135.466652,0 m -135.466652,0.26458 135.466652,0 m -135.466652,0.26459 135.466652,0 m -135.466652,0.26458 135.466652,0 m -135.466652,0.26458 135.466652,0 m -135.466652,0.26459 135.466652,0 m -135.466652,0.26458 135.466652,0 m -135.466652,0.26458 135.466652,0 m -135.466652,0.26459 135.466652,0 m -135.466652,0.26458 135.466652,0 m -135.466652,0.26458 135.466652,0 m -135.466652,0.26459 135.466652,0 m -135.466652,0.26458 135.466652,0 m -135.466652,0.26458 135.466652,0 m -135.466652,0.26459 135.466652,0 m -135.466652,0.26458 135.466652,0 m -135.466652,0.26458 135.466652,0 m -135.466652,0.26459 135.466652,0 m -135.466652,0.26458 135.466652,0 m -135.466652,0.26458 135.466652,0 m -135.466652,0.26459 135.466652,0 m -135.466652,0.26458 135.466652,0 m -135.466652,0.26458 135.466652,0 m -135.466652,0.26459 135.466652,0 m -135.466652,0.26458 135.466652,0 m -135.466652,0.26458 135.466652,0 m -135.466652,0.26459 135.466652,0 m -135.466652,0.26458 135.466652,0 m -135.466652,0.26458 135.466652,0 m -135.466652,0.26459 135.466652,0 m -135.466652,0.26458 135.466652,0 m -135.466652,0.26458 135.466652,0 m -135.466652,0.26459 135.466652,0 m -135.466652,0.26458 135.466652,0 m -135.466652,0.26458 135.466652,0 m -135.466652,0.26459 135.466652,0 m -135.466652,0.26458 135.466652,0 m -135.466652,0.26458 135.466652,0 m -135.466652,0.26459 135.466652,0 m -135.466652,0.26458 135.466652,0 m -135.466652,0.26458 135.466652,0 m -135.466652,0.26459 135.466652,0 m -135.466652,0.26458 135.466652,0 m -135.466652,0.26458 135.466652,0 m -135.466652,0.26459 135.466652,0 m -135.466652,0.26458 135.466652,0 m -135.466652,0.26458 135.466652,0 m -135.466652,0.26459 135.466652,0 m -135.466652,0.26458 135.466652,0 m -135.466652,0.26458 135.466652,0 m -135.466652,0.26459 135.466652,0 m -135.466652,0.26458 135.466652,0 m -135.466652,0.26458 135.466652,0 m -135.466652,0.26459 135.466652,0 m -135.466652,0.26458 135.466652,0 m -135.466652,0.26458 135.466652,0 m -135.466652,0.26459 135.466652,0 m -135.466652,0.26458 135.466652,0 m -135.466652,0.26458 135.466652,0 m -135.466652,0.26459 135.466652,0 m -135.466652,0.26458 135.466652,0 m -135.466652,0.26458 135.466652,0 m -135.466652,0.26459 135.466652,0 m -135.466652,0.26458 135.466652,0 m -135.466652,0.26458 135.466652,0 m -135.466652,0.26459 135.466652,0 m -135.466652,0.26458 135.466652,0 m -135.466652,0.26458 135.466652,0 m -135.466652,0.26459 135.466652,0 m -135.466652,0.26458 135.466652,0 m -135.466652,0.26458 135.466652,0 m -135.466652,0.26459 135.466652,0 m -135.466652,0.26458 135.466652,0 m -135.466652,0.26458 135.466652,0 m -135.466652,0.26459 135.466652,0 m -135.466652,0.26458 135.466652,0 m -135.466652,0.26458 135.466652,0 m -135.466652,0.26459 135.466652,0 m -135.466652,0.26458 135.466652,0 m -135.466652,0.26458 135.466652,0 m -135.466652,0.26459 135.466652,0 m -135.466652,0.26458 135.466652,0 m -135.466652,0.26458 135.466652,0 m -135.466652,0.26459 135.466652,0 m -135.466652,0.26458 135.466652,0 m -135.466652,0.26458 135.466652,0 m -135.466652,0.26459 135.466652,0 m -135.466652,0.26458 135.466652,0 m -135.466652,0.26458 135.466652,0 m -135.466652,0.26459 135.466652,0 m -135.466652,0.26458 135.466652,0 m -135.466652,0.26458 135.466652,0 m -135.466652,0.26459 135.466652,0 m -135.466652,0.26458 135.466652,0 m -135.466652,0.26458 135.466652,0 m -135.466652,0.26459 135.466652,0 m -135.466652,0.26458 135.466652,0 m -135.466652,0.26458 135.466652,0 m -135.466652,0.26459 135.466652,0 m -135.466652,0.26458 135.466652,0 m -135.466652,0.26458 135.466652,0 m -135.466652,0.26459 135.466652,0 m -135.466652,0.26458 135.466652,0 m -135.466652,0.26458 135.466652,0 m -135.466652,0.26459 135.466652,0 m -135.466652,0.26458 135.466652,0 m -135.466652,0.26458 135.466652,0 m -135.466652,0.26459 135.466652,0 m -135.466652,0.26458 135.466652,0 m -135.466652,0.26458 135.466652,0 m -135.466652,0.26459 135.466652,0 m -135.466652,0.26458 135.466652,0 m -135.466652,0.26458 135.466652,0 m -135.466652,0.26459 135.466652,0 m -135.466652,0.26458 135.466652,0 m -135.466652,0.26458 135.466652,0 m -135.466652,0.26459 135.466652,0 m -135.466652,0.26458 135.466652,0 m -135.466652,0.26458 135.466652,0 m -135.466652,0.26459 135.466652,0 m -135.466652,0.26458 135.466652,0 m -135.466652,0.26458 135.466652,0 m -135.466652,0.26459 135.466652,0 m -135.466652,0.26458 135.466652,0 m -135.466652,0.26458 135.466652,0 m -135.466652,0.26459 135.466652,0 m -135.466652,0.26458 135.466652,0 m -135.466652,0.26458 135.466652,0 m -135.466652,0.26459 135.466652,0 m -135.466652,0.26458 135.466652,0 m -135.466652,0.26458 135.466652,0 m -135.466652,0.26459 135.466652,0 m -135.466652,0.26458 135.466652,0 m -135.466652,0.26458 135.466652,0 m -135.466652,0.26459 135.466652,0 m -135.466652,0.26458 135.466652,0 m -135.466652,0.26458 135.466652,0 m -135.466652,0.26459 135.466652,0 m -135.466652,0.26458 135.466652,0 m -135.466652,0.26458 135.466652,0 m -135.466652,0.26459 135.466652,0 m -135.466652,0.26458 135.466652,0 m -135.466652,0.26458 135.466652,0 m -135.466652,0.26459 135.466652,0 m -135.466652,0.26458 135.466652,0 m -135.466652,0.26458 135.466652,0 m -135.466652,0.26459 135.466652,0 m -135.466652,0.26458 135.466652,0 m -135.466652,0.26458 135.466652,0 m -135.466652,0.26459 135.466652,0 m -135.466652,0.26458 135.466652,0 m -135.466652,0.26458 135.466652,0 m -135.466652,0.26459 135.466652,0 m -135.466652,0.26458 135.466652,0 m -135.466652,0.26458 135.466652,0 m -135.466652,0.26459 135.466652,0 m -135.466652,0.26458 135.466652,0 m -135.466652,0.26458 135.466652,0 m -135.466652,0.26459 135.466652,0 m -135.466652,0.26458 135.466652,0 m -135.466652,0.26458 135.466652,0 m -135.466652,0.26459 135.466652,0 m -135.466652,0.26458 135.466652,0 m -135.466652,0.26458 135.466652,0 m -135.466652,0.26459 135.466652,0 m -135.466652,0.26458 135.466652,0 m -135.466652,0.26458 135.466652,0 m -135.466652,0.26459 135.466652,0 m -135.466652,0.26458 135.466652,0 m -135.466652,0.26458 135.466652,0 m -135.466652,0.26459 135.466652,0 m -135.466652,0.26458 135.466652,0 m -135.466652,0.26458 135.466652,0 m -135.466652,0.26459 135.466652,0 m -135.466652,0.26458 135.466652,0 m -135.466652,0.26458 135.466652,0 m -135.466652,0.26459 135.466652,0 m -135.466652,0.26458 135.466652,0 m -135.466652,0.26458 135.466652,0 m -135.466652,0.26459 135.466652,0 m -135.466652,0.26458 135.466652,0 m -135.466652,0.26458 135.466652,0 m -135.466652,0.26459 135.466652,0 m -135.466652,0.26458 135.466652,0 m -135.466652,0.26458 135.466652,0 m -135.466652,0.26459 135.466652,0 m -135.466652,0.26458 135.466652,0 m -135.466652,0.26458 135.466652,0 m -135.466652,0.26459 135.466652,0 m -135.466652,0.26458 135.466652,0 m -135.466652,0.26458 135.466652,0 m -135.466652,0.26459 135.466652,0 m -135.466652,0.26458 135.466652,0 m -135.466652,0.26458 135.466652,0 m -135.466652,0.26459 135.466652,0 m -135.466652,0.26458 135.466652,0 m -135.466652,0.26458 135.466652,0 m -135.466652,0.26459 135.466652,0 m -135.466652,0.26458 135.466652,0 m -135.466652,0.26458 135.466652,0 m -135.466652,0.26459 135.466652,0 m -135.466652,0.26458 135.466652,0 m -135.466652,0.26458 135.466652,0 m -135.466652,0.26459 135.466652,0 m -135.466652,0.26458 135.466652,0 m -135.466652,0.26458 135.466652,0 m -135.466652,0.26459 135.466652,0 m -135.466652,0.26458 135.466652,0 m -135.466652,0.26458 135.466652,0 m -135.466652,0.26459 135.466652,0 m -135.466652,0.26458 135.466652,0 m -135.466652,0.26458 135.466652,0 m -135.466652,0.26459 135.466652,0 m -135.466652,0.26458 135.466652,0 m -135.466652,0.26458 135.466652,0 m -135.466652,0.26459 135.466652,0 m -135.466652,0.26458 135.466652,0 m -135.466652,0.26458 135.466652,0 m -135.466652,0.26459 135.466652,0 m -135.466652,0.26458 135.466652,0 m -135.466652,0.26458 135.466652,0 m -135.466652,0.26459 135.466652,0 m -135.466652,0.26458 135.466652,0 m -135.466652,0.26458 135.466652,0 m -135.466652,0.26459 135.466652,0 m -135.466652,0.26458 135.466652,0 m -135.466652,0.26458 135.466652,0 m -135.466652,0.26459 135.466652,0 m -135.466652,0.26458 135.466652,0 m -135.466652,0.26458 135.466652,0 m -135.466652,0.26459 135.466652,0 m -135.466652,0.26458 135.466652,0 m -135.466652,0.26458 135.466652,0 m -135.466652,0.26459 135.466652,0 m -135.466652,0.26458 135.466652,0"
       style="fill:none;stroke:#333333;stroke-width:0.0330729px;opacity:0.68"
       id="path1120"
       inkscape:export-xdpi="383.95319"
       inkscape:export-ydpi="383.95319" />
  </g>
</svg>
